<svg width="40" height="40" viewBox="0 0 40 40" fill="none" xmlns="http://www.w3.org/2000/svg">
<path d="M30.1797 11.25H6.07031C4.09848 11.25 2.5 12.8485 2.5 14.8203V25.1797C2.5 27.1515 4.09848 28.75 6.07031 28.75H30.1797C32.1515 28.75 33.75 27.1515 33.75 25.1797V14.8203C33.75 12.8485 32.1515 11.25 30.1797 11.25Z" stroke="white" stroke-width="2.5" stroke-miterlimit="10" stroke-linecap="square"/>
<path d="M29.2437 15.5414H7.00702C6.83443 15.5414 6.69452 15.6813 6.69452 15.8539V24.1461C6.69452 24.3187 6.83443 24.4586 7.00702 24.4586H29.2437C29.4163 24.4586 29.5562 24.3187 29.5562 24.1461V15.8539C29.5562 15.6813 29.4163 15.5414 29.2437 15.5414Z" fill="white" stroke="white" stroke-width="2.5" stroke-miterlimit="10" stroke-linecap="square"/>
<path d="M37.5 17.0836V22.9164" stroke="white" stroke-width="2.5" stroke-miterlimit="10" stroke-linecap="round"/>
</svg>
