<svg width="28" height="28" viewBox="0 0 28 28" fill="none" xmlns="http://www.w3.org/2000/svg">
<path d="M25.0833 3.52915C25.0891 3.348 25.0526 3.16799 24.9767 3.0034C24.9008 2.83881 24.7876 2.69416 24.6461 2.58094C24.5045 2.46772 24.3386 2.38902 24.1613 2.3511C23.9841 2.31319 23.8005 2.31708 23.625 2.36249L9.65999 5.86249C9.40273 5.9205 9.17272 6.06396 9.00746 6.26948C8.8422 6.47499 8.75144 6.73044 8.74999 6.99415L8.79082 20.1367C8.21344 19.9456 7.60807 19.853 6.99999 19.8625C4.74249 19.8625 2.91666 21.1692 2.91666 22.7792C2.91666 24.3892 4.74249 25.6958 6.99999 25.6958C9.25749 25.6958 11.0833 24.3892 11.0833 22.7792V10.5292L22.75 7.61249V16.6542C22.1865 16.4619 21.5953 16.3633 21 16.3625C18.7425 16.3625 16.9167 17.6692 16.9167 19.2792C16.9167 20.8892 18.7425 22.1958 21 22.1958C23.2575 22.1958 25.0833 20.8892 25.0833 19.2792V3.52915Z" fill="white"/>
</svg>
