<svg width="48" height="48" viewBox="0 0 48 48" fill="none" xmlns="http://www.w3.org/2000/svg">
<path d="M18 11H14C13.7465 10.9906 13.4937 11.0313 13.2559 11.1198C13.0182 11.2082 12.8002 11.3427 12.6144 11.5154C12.4287 11.6882 12.2788 11.8958 12.1734 12.1265C12.0679 12.3573 12.009 12.6065 12 12.86V35.14C12.009 35.3935 12.0679 35.6427 12.1734 35.8735C12.2788 36.1042 12.4287 36.3119 12.6144 36.4846C12.8002 36.6574 13.0182 36.7918 13.2559 36.8802C13.4937 36.9687 13.7465 37.0094 14 37H18C18.2535 37.0094 18.5063 36.9687 18.7441 36.8802C18.9818 36.7918 19.1998 36.6574 19.3856 36.4846C19.5713 36.3119 19.7212 36.1042 19.8266 35.8735C19.9321 35.6427 19.991 35.3935 20 35.14V12.86C19.991 12.6065 19.9321 12.3573 19.8266 12.1265C19.7212 11.8958 19.5713 11.6882 19.3856 11.5154C19.1998 11.3427 18.9818 11.2082 18.7441 11.1198C18.5063 11.0313 18.2535 10.9906 18 11Z" fill="white"/>
<path d="M34 11H30C29.7465 10.9906 29.4937 11.0313 29.2559 11.1198C29.0182 11.2082 28.8002 11.3427 28.6144 11.5154C28.4287 11.6882 28.2788 11.8958 28.1734 12.1265C28.0679 12.3573 28.009 12.6065 28 12.86V35.14C28.009 35.3935 28.0679 35.6427 28.1734 35.8735C28.2788 36.1042 28.4287 36.3119 28.6144 36.4846C28.8002 36.6574 29.0182 36.7918 29.2559 36.8802C29.4937 36.9687 29.7465 37.0094 30 37H34C34.2535 37.0094 34.5063 36.9687 34.7441 36.8802C34.9818 36.7918 35.1998 36.6574 35.3856 36.4846C35.5713 36.3119 35.7212 36.1042 35.8266 35.8735C35.9321 35.6427 35.991 35.3935 36 35.14V12.86C35.991 12.6065 35.9321 12.3573 35.8266 12.1265C35.7212 11.8958 35.5713 11.6882 35.3856 11.5154C35.1998 11.3427 34.9818 11.2082 34.7441 11.1198C34.5063 11.0313 34.2535 10.9906 34 11Z" fill="white"/>
</svg>
