<svg width="41" height="41" viewBox="0 0 41 41" fill="none" xmlns="http://www.w3.org/2000/svg">
<path d="M30.2857 18.9069L11.9524 8.90687C11.7 8.75708 11.4125 8.67659 11.119 8.67354C10.677 8.67354 10.2531 8.84913 9.94053 9.16169C9.62797 9.47425 9.45238 9.89818 9.45238 10.3402V30.3402C9.45238 30.7822 9.62797 31.2062 9.94053 31.5187C10.2531 31.8313 10.677 32.0069 11.119 32.0069C11.4118 32.0064 11.6992 31.9288 11.9524 31.7819L30.2857 21.7819C30.5363 21.6348 30.7442 21.4248 30.8886 21.1726C31.033 20.9205 31.1089 20.635 31.1089 20.3444C31.1089 20.0538 31.033 19.7683 30.8886 19.5161C30.7442 19.2639 30.5363 19.0539 30.2857 18.9069Z" fill="white"/>
</svg>
