<svg width="41" height="41" viewBox="0 0 41 41" fill="none" xmlns="http://www.w3.org/2000/svg">
<path d="M6.95239 23.6735C7.39442 23.6735 7.81834 23.4979 8.1309 23.1854C8.44346 22.8728 8.61905 22.4489 8.61905 22.0069V18.6735C8.61905 16.9054 9.32143 15.2097 10.5717 13.9595C11.8219 12.7093 13.5176 12.0069 15.2857 12.0069H28.6191V14.5069C28.6191 14.7279 28.7069 14.9399 28.8631 15.0961C29.0194 15.2524 29.2314 15.3402 29.4524 15.3402C29.6532 15.3356 29.8455 15.2587 29.9941 15.1235L34.9941 10.9569C35.0747 10.8791 35.1389 10.7859 35.1827 10.6829C35.2265 10.5798 35.2491 10.4689 35.2491 10.3569C35.2491 10.2449 35.2265 10.134 35.1827 10.0309C35.1389 9.92781 35.0747 9.83461 34.9941 9.75688L29.9941 5.59021C29.8505 5.44289 29.6576 5.35384 29.4524 5.34021C29.2314 5.34021 29.0194 5.42801 28.8631 5.58429C28.7069 5.74057 28.6191 5.95253 28.6191 6.17354V8.67354H15.2857C12.6336 8.67354 10.09 9.72711 8.21465 11.6025C6.33929 13.4778 5.28572 16.0214 5.28572 18.6735V22.0069C5.28572 22.4489 5.46132 22.8728 5.77388 23.1854C6.08644 23.4979 6.51036 23.6735 6.95239 23.6735Z" fill="white"/>
<path d="M33.6191 17.0069C33.177 17.0069 32.7531 17.1825 32.4405 17.495C32.128 17.8076 31.9524 18.2315 31.9524 18.6735V22.0069C31.9524 23.775 31.25 25.4707 29.9998 26.7209C28.7495 27.9712 27.0538 28.6735 25.2857 28.6735H11.9524V26.1735C11.9524 25.9525 11.8646 25.7406 11.7083 25.5843C11.552 25.428 11.3401 25.3402 11.1191 25.3402C10.9183 25.3448 10.7259 25.4218 10.5774 25.5569L5.57739 29.7235C5.49674 29.8013 5.43259 29.8945 5.38877 29.9976C5.34495 30.1007 5.32237 30.2115 5.32237 30.3235C5.32237 30.4356 5.34495 30.5464 5.38877 30.6495C5.43259 30.7526 5.49674 30.8458 5.57739 30.9235L10.5774 35.0902C10.7209 35.2375 10.9138 35.3266 11.1191 35.3402C11.3401 35.3402 11.552 35.2524 11.7083 35.0961C11.8646 34.9399 11.9524 34.7279 11.9524 34.5069V32.0069H25.2857C27.9379 32.0069 30.4814 30.9533 32.3568 29.0779C34.2322 27.2026 35.2857 24.659 35.2857 22.0069V18.6735C35.2857 18.2315 35.1101 17.8076 34.7976 17.495C34.485 17.1825 34.0611 17.0069 33.6191 17.0069Z" fill="white"/>
</svg>
