<svg width="41" height="41" viewBox="0 0 41 41" fill="none" xmlns="http://www.w3.org/2000/svg">
<path d="M34.2191 29.7402L29.2191 25.5735C29.1395 25.4968 29.0455 25.4367 28.9425 25.3966C28.8395 25.3565 28.7295 25.3374 28.6191 25.3402C28.398 25.3402 28.1861 25.428 28.0298 25.5843C27.8735 25.7406 27.7857 25.9525 27.7857 26.1735V28.6735C26.1329 28.5668 24.5493 27.9699 23.2372 26.9591C21.9251 25.9483 20.944 24.5695 20.4191 22.9985L18.3107 16.6819C17.5431 14.3574 16.0638 12.3332 14.0822 10.896C12.1005 9.45872 9.717 8.68122 7.26905 8.67354H6.11905C5.67702 8.67354 5.2531 8.84913 4.94054 9.16169C4.62798 9.47425 4.45238 9.89818 4.45238 10.3402C4.45238 10.7822 4.62798 11.2062 4.94054 11.5187C5.2531 11.8313 5.67702 12.0069 6.11905 12.0069H7.26905C9.01876 12.0065 10.7242 12.5568 12.1436 13.5799C13.5631 14.6029 14.6245 16.0468 15.1774 17.7069L17.2857 24.0235C18.0261 26.2582 19.4252 28.2167 21.2992 29.6415C23.1732 31.0663 25.4344 31.8909 27.7857 32.0069V34.5069C27.7857 34.7279 27.8735 34.9398 28.0298 35.0961C28.1861 35.2524 28.398 35.3402 28.6191 35.3402C28.8198 35.3356 29.0122 35.2587 29.1607 35.1235L34.1607 30.9569C34.2414 30.8791 34.3055 30.7859 34.3493 30.6828C34.3932 30.5798 34.4157 30.4689 34.4157 30.3569C34.4157 30.2449 34.3932 30.134 34.3493 30.0309C34.3055 29.9278 34.2414 29.8346 34.1607 29.7569L34.2191 29.7402Z" fill="white"/>
<path d="M21.7107 14.5069C22.1187 14.5083 22.5131 14.3601 22.819 14.0902C24.1984 12.8652 25.9452 12.1324 27.7857 12.0069V14.5069C27.7857 14.7279 27.8735 14.9399 28.0298 15.0961C28.1861 15.2524 28.398 15.3402 28.619 15.3402C28.8187 15.3379 29.011 15.264 29.1607 15.1319L34.1607 10.9652C34.2414 10.8875 34.3055 10.7943 34.3493 10.6912C34.3932 10.5881 34.4157 10.4772 34.4157 10.3652C34.4157 10.2532 34.3932 10.1423 34.3493 10.0392C34.3055 9.93614 34.2414 9.84295 34.1607 9.76521L29.1607 5.59854C29.0185 5.44815 28.8254 5.35606 28.619 5.34021C28.398 5.34021 28.1861 5.42801 28.0298 5.58429C27.8735 5.74057 27.7857 5.95253 27.7857 6.17354V8.67354C25.1233 8.80042 22.5824 9.82559 20.5774 11.5819C20.3182 11.8068 20.1347 12.1062 20.0521 12.4393C19.9694 12.7724 19.9916 13.1229 20.1156 13.4429C20.2396 13.7629 20.4593 14.0368 20.7448 14.2272C21.0303 14.4177 21.3676 14.5153 21.7107 14.5069Z" fill="white"/>
<path d="M12.4857 26.8402C11.0062 28.0272 9.16592 28.674 7.26905 28.6736H6.11905C5.67702 28.6736 5.2531 28.8491 4.94054 29.1617C4.62798 29.4743 4.45238 29.8982 4.45238 30.3402C4.45238 30.7822 4.62798 31.2062 4.94054 31.5187C5.2531 31.8313 5.67702 32.0069 6.11905 32.0069H7.26905C9.92581 32.0053 12.503 31.1002 14.5774 29.4402C14.9067 29.159 15.1136 28.7607 15.1544 28.3296C15.1951 27.8985 15.0665 27.4685 14.7957 27.1306C14.525 26.7927 14.1333 26.5734 13.7037 26.5192C13.2741 26.465 12.8403 26.5801 12.4941 26.8402H12.4857Z" fill="white"/>
</svg>
